<?xml version="1.0" encoding="utf-8"?>
<!-- Generator: Adobe Illustrator 21.1.0, SVG Export Plug-In . SVG Version: 6.00 Build 0)  -->
<svg version="1.1" id="Layer_1" xmlns="http://www.w3.org/2000/svg" xmlns:xlink="http://www.w3.org/1999/xlink" x="0px" y="0px"
	 viewBox="0 0 295 55" style="enable-background:new 0 0 295 55;" xml:space="preserve">
<style type="text/css">
	.st0{fill:#1589CA;}
	.st1{fill:#EF4523;}
</style>
<g>
	<g>
		<path class="st0" d="M277.3,46.2c-0.6,0-1.2-0.2-1.6-0.7c-0.9-0.9-0.9-2.3,0-3.2l9.1-9l-9.1-9c-0.9-0.9-0.9-2.3,0-3.2
			c0.9-0.9,2.3-0.9,3.2,0l10.7,10.6c0.4,0.4,0.7,1,0.7,1.6s-0.2,1.2-0.7,1.6l-10.7,10.6C278.4,46,277.8,46.2,277.3,46.2z"/>
	</g>
	<g>
		<path class="st1" d="M49.3,47.5h-6.8l-2.7-7H27.6l-2.5,7h-6.6l12-30.7H37L49.3,47.5z M37.9,35.3l-4.2-11.4l-4.2,11.4H37.9z"/>
		<path class="st1" d="M52.6,47.5V16.7h5.9v30.7H52.6z"/>
		<path class="st1" d="M64.5,47.5V16.7h5.9v30.7H64.5z"/>
		<path class="st1" d="M88.4,47.5V16.7h6.2v12.1h12.2V16.7h6.2v30.7h-6.2V34H94.6v13.4H88.4z"/>
		<path class="st1" d="M118,36c0-2,0.5-3.9,1.4-5.7c1-1.8,2.3-3.2,4.1-4.2c1.8-1,3.7-1.4,5.9-1.4c3.4,0,6.1,1.1,8.3,3.3
			c2.2,2.2,3.2,5,3.2,8.3c0,3.4-1.1,6.2-3.3,8.4c-2.2,2.2-4.9,3.3-8.2,3.3c-2,0-4-0.5-5.8-1.4s-3.3-2.3-4.2-4.1
			C118.5,40.8,118,38.6,118,36z M124.1,36.3c0,2.2,0.5,3.9,1.6,5.1c1,1.2,2.3,1.8,3.9,1.8c1.5,0,2.8-0.6,3.9-1.8
			c1-1.2,1.6-2.9,1.6-5.1c0-2.2-0.5-3.9-1.6-5c-1-1.2-2.3-1.8-3.9-1.8c-1.5,0-2.8,0.6-3.9,1.8C124.6,32.5,124.1,34.1,124.1,36.3z"/>
		<path class="st1" d="M155.8,25.2v4.7h-4v9c0,1.8,0,2.9,0.1,3.2c0.1,0.3,0.3,0.5,0.5,0.7c0.3,0.2,0.6,0.3,1,0.3
			c0.5,0,1.3-0.2,2.4-0.6l0.5,4.6c-1.4,0.6-2.9,0.9-4.7,0.9c-1.1,0-2-0.2-2.9-0.5c-0.9-0.4-1.5-0.8-1.9-1.4s-0.7-1.3-0.8-2.3
			c-0.1-0.7-0.2-2.1-0.2-4.2v-9.7h-2.7v-4.7h2.7v-4.4l5.9-3.4v7.9H155.8z"/>
		<path class="st1" d="M171.9,16.7h11.3c2.6,0,4.5,0.2,5.8,0.6c1.8,0.5,3.3,1.5,4.6,2.8c1.3,1.4,2.3,3,2.9,5c0.7,2,1,4.4,1,7.3
			c0,2.5-0.3,4.7-0.9,6.5c-0.8,2.2-1.9,4-3.3,5.4c-1.1,1-2.5,1.9-4.4,2.5c-1.4,0.4-3.2,0.6-5.5,0.6h-11.7V16.7z M178.1,21.9v20.4
			h4.6c1.7,0,3-0.1,3.8-0.3c1-0.3,1.8-0.7,2.5-1.3c0.7-0.6,1.2-1.6,1.6-3c0.4-1.4,0.6-3.3,0.6-5.6s-0.2-4.2-0.6-5.5
			c-0.4-1.3-1-2.3-1.8-3c-0.8-0.7-1.7-1.2-2.9-1.4c-0.9-0.2-2.6-0.3-5.1-0.3H178.1z"/>
		<path class="st1" d="M215.7,40.4l5.9,1c-0.8,2.2-1.9,3.8-3.6,4.9c-1.6,1.1-3.7,1.7-6.1,1.7c-3.9,0-6.7-1.3-8.6-3.8
			c-1.5-2-2.2-4.6-2.2-7.7c0-3.7,1-6.6,2.9-8.7c1.9-2.1,4.4-3.1,7.3-3.1c3.3,0,5.9,1.1,7.8,3.3c1.9,2.2,2.8,5.5,2.7,10.1h-14.8
			c0,1.7,0.5,3.1,1.4,4.1c0.9,1,2,1.5,3.4,1.5c0.9,0,1.7-0.3,2.3-0.8C214.9,42.3,215.4,41.5,215.7,40.4z M216.1,34.4
			c0-1.7-0.5-3-1.3-3.9c-0.8-0.9-1.9-1.3-3.1-1.3c-1.3,0-2.3,0.5-3.2,1.4c-0.8,0.9-1.3,2.2-1.2,3.8H216.1z"/>
		<path class="st1" d="M231.1,32l-5.3-1c0.6-2.2,1.6-3.7,3.1-4.8s3.6-1.6,6.5-1.6c2.6,0,4.6,0.3,5.9,0.9c1.3,0.6,2.2,1.4,2.7,2.4
			c0.5,1,0.8,2.7,0.8,5.3l-0.1,6.9c0,2,0.1,3.4,0.3,4.3c0.2,0.9,0.5,1.9,1.1,3h-5.8c-0.2-0.4-0.3-1-0.6-1.7
			c-0.1-0.3-0.2-0.6-0.2-0.7c-1,1-2.1,1.7-3.2,2.2c-1.1,0.5-2.4,0.7-3.7,0.7c-2.3,0-4.1-0.6-5.4-1.9c-1.3-1.2-2-2.8-2-4.7
			c0-1.3,0.3-2.4,0.9-3.4s1.4-1.7,2.5-2.3c1.1-0.5,2.6-1,4.7-1.4c2.8-0.5,4.7-1,5.7-1.4v-0.6c0-1.1-0.3-1.9-0.8-2.4
			c-0.6-0.5-1.6-0.7-3.2-0.7c-1,0-1.9,0.2-2.5,0.6C232,30.3,231.5,31,231.1,32z M239,36.8c-0.8,0.3-2,0.6-3.6,0.9
			c-1.6,0.3-2.7,0.7-3.2,1c-0.8,0.5-1.2,1.2-1.2,2.1c0,0.8,0.3,1.5,0.9,2.1c0.6,0.6,1.4,0.9,2.3,0.9c1.1,0,2.1-0.3,3-1
			c0.7-0.5,1.2-1.2,1.4-1.9c0.2-0.5,0.2-1.5,0.2-2.9V36.8z"/>
		<path class="st1" d="M250.6,47.5V16.7h5.9v30.7H250.6z"/>
	</g>
</g>
</svg>
