<?xml version="1.0" encoding="utf-8"?>
<!-- Generator: Adobe Illustrator 21.1.0, SVG Export Plug-In . SVG Version: 6.00 Build 0)  -->
<svg version="1.1" id="Layer_1" xmlns="http://www.w3.org/2000/svg" xmlns:xlink="http://www.w3.org/1999/xlink" x="0px" y="0px"
	 viewBox="0 0 62 16" style="enable-background:new 0 0 62 16;" xml:space="preserve">
<style type="text/css">
	.st0{fill:#1589CA;}
	.st1{fill:#EF4523;}
</style>
<g>
	<path class="st0" d="M54.3,13.7c-0.3,0-0.5-0.1-0.7-0.3c-0.4-0.4-0.4-1,0-1.4l4-4l-4-4c-0.4-0.4-0.4-1,0-1.4s1-0.4,1.4,0l4.8,4.7
		C59.9,7.5,60,7.8,60,8c0,0.3-0.1,0.5-0.3,0.7L55,13.4C54.8,13.6,54.5,13.7,54.3,13.7z"/>
</g>
<g>
	<path class="st1" d="M32.7,13.5c1.2,0.6,2.1,1.2,2.7,1.8l1.4-1.4c-0.9-1-1.9-1.7-3.1-2.2L32.7,13.5z"/>
	<path class="st1" d="M42.7,0.8h-1.2H31.2h-2.7h-4.3h-1.1h-3.4h-1.4H2v2h13.9v7.9c-0.5-0.4-0.9-0.7-1.2-0.9c0-4.6-1.6-6.9-4.8-6.9
		c-1,0-2,0.3-2.7,0.8C6.3,4.3,5.9,5.1,5.9,6.1c0,0.8,0.2,1.4,0.7,2C7.1,8.7,7.7,9,8.4,9c0.2,0,0.5-0.1,0.8-0.1l0.7-2
		C9.7,7,9.5,7,9.3,7C8.5,7,8.1,6.7,8.1,6.2s0.2-0.8,0.7-1.1C9.1,4.9,9.5,4.8,10,4.8c0.9,0,1.5,0.3,2,1c0.4,0.6,0.6,1.4,0.6,2.3
		c0,0.8-0.2,1.6-0.7,2.3c-0.6,0.8-1.3,1.2-2.1,1.2c-1.3,0-2.5-0.6-3.7-1.8c-1-1.1-1.7-2.3-2.2-3.7L2.5,7.6c0.7,1.7,1.6,3.1,2.8,4.2
		c1.4,1.3,2.9,1.9,4.6,1.9c1.3,0,2.6-0.6,3.8-1.9c0.5,0.3,1,0.7,1.5,1.2c0.5,0.6,0.7,1.2,0.8,1.7h2.1V2.8h0.2h1.4h0.6v11.9h2.2V2.8
		h0.6h1.1h3.1c-1,1.2-1.7,2.2-2.2,3c-0.7,1.2-1,2.4-1,3.5c0,2,0.7,3.8,2,5.2c0.6,0.7,1.8,1,3.7,1c0.6,0,1.1-0.2,1.6-0.4v-2.4
		c-0.7,0.5-1.2,0.8-1.5,0.8c-1.4,0-2.3-0.5-2.9-1.3c-0.5-0.7-0.7-1.8-0.7-3.2c0-1.2,0.5-2.5,1.6-3.8c0.9-1.2,2-2,3.1-2.4h7.9
		c-3.9,1.4-7.1,2.9-9.5,4.5L30,9.6c1.5,0.1,3.2,0.6,5.2,1.7c2,1,3.4,2.2,4.1,3.4h2V2.8c0,0,0.2,0,0.2,0c0.3,0,1.2,0,1.2,0h0.8v11.9
		h2.2V2.8h1.7v-2H42.7z M39.1,11.4c-1.8-1.5-3.7-2.6-5.8-3.4c1.8-1.1,3.7-2,5.8-2.7V11.4z"/>
</g>
</svg>
